<?xml version="1.0" encoding="UTF-8"?>
<svg width="289px" height="68px" viewBox="0 0 289 68" version="1.1" xmlns="http://www.w3.org/2000/svg" xmlns:xlink="http://www.w3.org/1999/xlink">
    <!-- Generator: Sketch 49 (51002) - http://www.bohemiancoding.com/sketch -->
    <title>Rave</title>
    <desc>Created with Sketch.</desc>
    <defs></defs>
    <g id="Page-1" stroke="none" stroke-width="1" fill="none" fill-rule="evenodd">
        <g id="Rave-logo-flattened" transform="translate(-112.000000, -130.000000)" fill-rule="nonzero">
            <g id="Rave" transform="translate(112.000000, 130.000000)">
                <g id="Logo" transform="translate(88.000000, 7.000000)" fill="#150F28">
                    <path d="M12.6075269,7.88540619 L12.6075269,7.96776338 C17.2903226,3.25953956 23.4139785,0.362171063 31.3387097,0.362171063 L31.3387097,12.3138161 C23.0537634,12.6759872 16.9301075,15.5733557 12.6075269,21.0059216 L12.6075269,52.8769751 L0,52.8769751 L0,19.6073042 L12.6075269,7.88540619 Z M74.5645161,1.44868425 L86.811828,1.44868425 L86.811828,52.8769751 L74.5645161,52.8769751 L74.5645161,49.2552645 C70.2419355,52.152633 65.1989247,53.9634883 59.0752688,53.9634883 C44.6666667,53.9634883 33.5,42.0118433 33.5,27.1628297 C33.5,12.3138161 45.0268817,0.362171063 59.0752688,0.362171063 C65.1989247,0.362171063 70.6021505,2.17302638 74.5645161,5.07039488 L74.5645161,1.44868425 Z M60.8763441,43.0983565 C66.2795699,43.0983565 70.9623656,41.2875011 74.5645161,35.8549352 L74.5645161,18.4707242 C70.9623656,13.0381583 65.9193548,11.2273029 60.8763441,11.2273029 C52.2311828,11.2273029 45.7473118,18.8328953 45.7473118,27.1628297 C45.7473118,35.8549352 51.8709677,43.0983565 60.8763441,43.0983565 Z M149.849462,1.44868425 L126.435484,52.8769751 L115.268817,52.8769751 L91.8548387,1.44868425 L105.182796,1.44868425 L121.032258,36.9414484 L136.88172,1.44868425 L149.849462,1.44868425 Z M181.65608,42.7994861 L169.60933,54 C157.00976,51.2543088 148.768817,40.5924165 148.768817,27.5250008 C148.768817,11.589474 159.575269,0 175.784946,0 C190.193548,0 200.639785,10.5029608 201,26.4384876 C201,28.2493429 201,29.3358561 200.639785,30.4223693 L161.016129,30.4223693 C162.096774,37.6657905 167.139785,43.4605275 176.505376,43.4605275 C178.441435,43.4605275 180.16513,43.2470113 181.65608,42.7994861 Z M175.424731,10.5029608 C167.139785,10.5029608 162.456989,15.5733557 161.016129,22.8167769 L188.032258,22.8167769 C187.311828,15.2111846 182.989247,10.5029608 175.424731,10.5029608 Z" id="Combined-Shape"></path>
                </g>
                <path d="M49.2120003,28.9324902 C58.4649823,21.7323349 77.4996881,-4.00155384 47.7579603,0.531877332 C34.8037855,2.39858428 15.7690797,14.265507 11.9357015,27.8658005 C9.93575755,24.2290321 7.72898249,20.7119736 5.32642861,17.3322399 C1.75742128,12.6654725 -2.34032789,16.2655502 1.62523582,21.0656538 C12.8609997,34.7992835 20.6599416,51.3329736 20.6599416,68 C21.5852398,59.7331549 20.1311998,49.5996029 16.6943779,39.7327233 C18.4127889,40.2660682 20.2633852,40.5327406 21.9817962,40.5327406 C28.0623272,49.8662753 37.3153092,57.866448 47.7579603,61.5998619 C57.2753132,65.1999396 69.9651171,63.0665602 64.8098842,48.6662494 C62.0339896,40.799413 55.5569023,33.86593 49.2120003,28.9324902 Z M50.5338549,3.8652826 C67.057037,2.13191186 49.3441858,21.4656624 43.5280257,25.0657401 C38.1084219,21.7323349 31.3669636,18.7989382 24.7576908,19.5989555 C29.5163672,13.8654984 41.016502,4.93197229 50.5338549,3.8652826 Z M24.6255053,23.8657142 C29.1198109,23.4657056 34.0106728,25.8657574 37.7118656,28.2658092 C34.1428582,29.9991799 30.1772945,31.0658696 26.0795454,31.332542 C19.9990143,31.332542 18.8093452,24.3990591 24.6255053,23.8657142 Z M47.4935894,53.9996979 C39.6946474,51.8663185 32.4244473,45.9995252 27.137029,39.9993957 C31.4991491,39.1993785 35.7290837,37.5993439 39.6946474,35.3326284 C41.1486874,34.6659473 42.6027275,33.7325938 43.924582,32.7992403 C48.551073,36.7993267 53.3097495,42.1327751 55.1603459,48.1329046 C57.0109423,54.6663789 51.9878949,55.1997238 47.4935894,53.9996979 Z" id="logomark" fill="#000000"></path>
            </g>
        </g>
    </g>
</svg>